<svg width="24" height="24" viewBox="0 0 24 24" fill="none" xmlns="http://www.w3.org/2000/svg">
<path d="M18.36 18.36C17.95 18.77 17.51 19.14 17.03 19.46C16.55 19.78 16.04 20.06 15.5 20.29C14.96 20.52 14.4 20.69 13.81 20.81C13.22 20.93 12.62 20.99 12 20.99C11.38 20.99 10.77 20.93 10.19 20.81C9.61001 20.69 9.04001 20.51 8.50001 20.29C7.96001 20.06 7.45001 19.78 6.97001 19.46C6.49001 19.14 6.05001 18.77 5.64001 18.36C5.23001 17.95 4.86001 17.51 4.54001 17.03C4.22001 16.55 3.94001 16.04 3.71001 15.5C3.48001 14.96 3.31001 14.4 3.19001 13.81C3.07001 13.22 3.01001 12.62 3.01001 12C3.01001 11.38 3.07001 10.77 3.19001 10.19C3.31001 9.61 3.49001 9.04 3.71001 8.5C3.94001 7.96 4.22001 7.45 4.54001 6.97C4.86001 6.49 5.23001 6.05 5.64001 5.64C6.05001 5.23 6.49001 4.86 6.97001 4.54C7.45001 4.22 7.96001 3.94 8.50001 3.71C9.04001 3.48 9.60001 3.31 10.19 3.19C10.78 3.07 11.38 3.01 12 3.01C11.66 3.59 9.25001 7.86 11 12.01C12.38 15.29 15.77 17.07 17.11 17.78C17.62 18.05 18.05 18.24 18.36 18.37V18.36Z" stroke="#fff" stroke-width="2" stroke-linecap="round" stroke-linejoin="round"/>
<path d="M17 9.43C16.57 8.15 15.57 7.15 14.29 6.72C15.57 6.29 16.57 5.29 17 4.01C17.43 5.29 18.43 6.29 19.71 6.72C18.43 7.15 17.43 8.15 17 9.43Z" fill="#fff"/>
<path d="M14.01 10.91C13.87 10.48 13.53 10.14 13.1 10C13.53 9.86 13.87 9.52 14.01 9.09C14.15 9.52 14.49 9.86 14.92 10C14.49 10.14 14.15 10.48 14.01 10.91Z" fill="#fff"/>
<path d="M19.01 14.01C18.77 13.3 18.22 12.75 17.51 12.51C18.22 12.27 18.77 11.72 19.01 11.01C19.25 11.72 19.8 12.27 20.51 12.51C19.8 12.75 19.25 13.3 19.01 14.01Z" fill="#fff"/>
</svg>
